<svg xmlns="http://www.w3.org/2000/svg" version="1.1" xmlns:xlink="http://www.w3.org/1999/xlink" xmlns:svgjs="http://svgjs.dev/svgjs" width="100%" height="100%" viewBox="0 0 1000 600"><rect width="1000" height="600" x="0" y="0" fill="#e7d045"/><g><circle r="166.66666666666666" cx="282.03483072916663" cy="304.25705787981303" fill="#a04ef6" transform="matrix(1.0834879105304216,0,0,1.0834879105304216,0,-29.658820909039832)"/><path d="M278.2534249207164 364.0458445828809L285.64497723900496 365.5013239969068L285.64497723900496 377.2022369331938L234.87443062033554 377.2022369331938L234.87443062033554 365.90086736546294L245.57648513523213 364.0458445828809Q250.91324298666058 363.0184473494508 250.91324298666058 359.1086301000086L250.91324298666058 359.1086301000086Q250.91324298666058 357.2821461294662 250.08561743750857 354.7992694820103L250.08561743750857 354.7992694820103L241.03881402091596 328.08694141282837L185.98744559628793 328.08694141282837L176.74087049541728 354.199954429176Q175.91324494626528 357.0538356331485 175.91324494626528 358.7090867314525L175.91324494626528 358.7090867314525Q175.91324494626528 363.0184473494508 181.4497744819718 364.0458445828809L181.4497744819718 364.0458445828809L191.7237468162725 365.90086736546294L191.7237468162725 377.2022369331938L144.2637023942111 377.2022369331938L144.2637023942111 365.5013239969068L151.4554830282216 364.0458445828809Q155.5650719619419 363.2182190337289 157.42009474452396 361.4773514993057Q159.27511752710603 359.73648396488255 161.13014030968813 354.5994977977322L161.13014030968813 354.5994977977322L205.90753640001543 229.25703531926334L225.22831215090875 229.25703531926334L268.3789959549718 354.5994977977322Q270.0342470532758 359.5367122806045 271.9748862719771 361.39173506318656Q273.9155254906783 363.2182190337289 278.2534249207164 364.0458445828809L278.2534249207164 364.0458445828809ZM190.69634958284243 314.3312340096813L236.3299100343615 314.3312340096813L216.60959091491202 256.1691350727233L213.92694258317795 245.89516273842256L211.24429425144388 256.1691350727233L190.69634958284243 314.3312340096813ZM410.55935753687794 364.6736984477548Q415.69634370402827 364.6736984477548 419.80593263774864 363.2182190337289L419.80593263774864 363.2182190337289L418.7785354043186 375.54698583488977Q416.72374093745844 377.0024652489157 412.5285355676189 378.11547891846493Q408.30479138573975 379.2570314000539 403.3675769028675 379.2570314000539L403.3675769028675 379.2570314000539Q394.7488556668707 379.2570314000539 388.47031701813137 374.2342004810625Q382.22031718143177 369.1828307500312 374.60045436682543 359.1086301000086L374.60045436682543 359.1086301000086L330.02282996077616 298.92027550823025L330.02282996077616 355.82666671544035Q330.02282996077616 359.9362556491606 331.16438244236514 361.4773514993057Q332.27739611191436 363.0184473494508 335.98744167707855 363.64630121432475L335.98744167707855 363.64630121432475L347.0890395605312 365.5013239969068L347.0890395605312 377.2022369331938L296.74657512245767 377.2022369331938L296.74657512245767 365.5013239969068L307.02054745675844 363.64630121432475Q310.7020542098828 363.0184473494508 311.8436066914718 361.4773514993057Q312.956620361021 359.9362556491606 312.956620361021 355.82666671544035L312.956620361021 355.82666671544035L312.956620361021 250.6326055370168Q312.956620361021 246.5230166032965 311.8436066914718 244.9819207531514Q310.7020542098828 243.4408249030063 307.02054745675844 242.81297103813236L307.02054745675844 242.81297103813236L296.74657512245767 240.95794825555026L296.74657512245767 229.25703531926334L347.0890395605312 229.25703531926334L347.0890395605312 240.95794825555026L335.98744167707855 242.81297103813236Q332.27739611191436 243.4408249030063 331.16438244236514 244.9819207531514Q330.02282996077616 246.5230166032965 330.02282996077616 250.6326055370168L330.02282996077616 250.6326055370168L330.02282996077616 294.8106865745099L382.6198605499879 238.10406705157786Q390.8390384174285 229.25703531926334 403.79565908346325 229.25703531926334L403.79565908346325 229.25703531926334L412.0148369509039 229.25703531926334L412.0148369509039 242.21365598529815Q405.0228280011714 242.21365598529815 400.9132390674511 243.64059658728436Q396.80365013373086 245.06753718927058 392.06620733513665 250.00475167214287L392.06620733513665 250.00475167214287L348.7157518467955 296.43739886077424L387.5570750328602 347.40771716372166Q395.5764812160227 357.6816894980224 400.3995404507361 361.16342456686874Q405.22259968544955 364.6736984477548 410.55935753687794 364.6736984477548L410.55935753687794 364.6736984477548Z " fill="#e7d045" transform="matrix(1.0834879105304216,0,0,1.0834879105304216,0,-29.658820909039832)"/><path d="M666.0245430847788 364.0458445828809L673.4160954030674 365.5013239969068L673.4160954030674 377.2022369331938L622.645548784398 377.2022369331938L622.645548784398 365.90086736546294L633.3476032992945 364.0458445828809Q638.684361150723 363.0184473494508 638.684361150723 359.1086301000086L638.684361150723 359.1086301000086Q638.684361150723 357.2821461294662 637.856735601571 354.7992694820103L637.856735601571 354.7992694820103L628.8099321849784 328.08694141282837L573.7585637603504 328.08694141282837L564.5119886594797 354.199954429176Q563.6843631103277 357.0538356331485 563.6843631103277 358.7090867314525L563.6843631103277 358.7090867314525Q563.6843631103277 363.0184473494508 569.2208926460341 364.0458445828809L569.2208926460341 364.0458445828809L579.4948649803349 365.90086736546294L579.4948649803349 377.2022369331938L532.0348205582735 377.2022369331938L532.0348205582735 365.5013239969068L539.2266011922841 364.0458445828809Q543.3361901260043 363.2182190337289 545.1912129085864 361.4773514993057Q547.0462356911685 359.73648396488255 548.9012584737505 354.5994977977322L548.9012584737505 354.5994977977322L593.6786545640779 229.25703531926334L612.9994303149712 229.25703531926334L656.1501141190342 354.5994977977322Q657.8053652173382 359.5367122806045 659.7460044360395 361.39173506318656Q661.6866436547407 363.2182190337289 666.0245430847788 364.0458445828809L666.0245430847788 364.0458445828809ZM578.4674677469048 314.3312340096813L624.1010281984238 314.3312340096813L604.3807090789744 256.1691350727233L601.6980607472403 245.89516273842256L599.0154124155063 256.1691350727233L578.4674677469048 314.3312340096813ZM798.3304757009403 364.6736984477548Q803.4674618680907 364.6736984477548 807.5770508018111 363.2182190337289L807.5770508018111 363.2182190337289L806.549653568381 375.54698583488977Q804.4948591015209 377.0024652489157 800.2996537316812 378.11547891846493Q796.0759095498022 379.2570314000539 791.1386950669298 379.2570314000539L791.1386950669298 379.2570314000539Q782.5199738309332 379.2570314000539 776.2414351821938 374.2342004810625Q769.9914353454942 369.1828307500312 762.3715725308878 359.1086301000086L762.3715725308878 359.1086301000086L717.7939481248386 298.92027550823025L717.7939481248386 355.82666671544035Q717.7939481248386 359.9362556491606 718.9355006064276 361.4773514993057Q720.0485142759768 363.0184473494508 723.7585598411409 363.64630121432475L723.7585598411409 363.64630121432475L734.8601577245936 365.5013239969068L734.8601577245936 377.2022369331938L684.5176932865202 377.2022369331938L684.5176932865202 365.5013239969068L694.7916656208208 363.64630121432475Q698.4731723739453 363.0184473494508 699.6147248555342 361.4773514993057Q700.7277385250834 359.9362556491606 700.7277385250834 355.82666671544035L700.7277385250834 355.82666671544035L700.7277385250834 250.6326055370168Q700.7277385250834 246.5230166032965 699.6147248555342 244.9819207531514Q698.4731723739453 243.4408249030063 694.7916656208208 242.81297103813236L694.7916656208208 242.81297103813236L684.5176932865202 240.95794825555026L684.5176932865202 229.25703531926334L734.8601577245936 229.25703531926334L734.8601577245936 240.95794825555026L723.7585598411409 242.81297103813236Q720.0485142759768 243.4408249030063 718.9355006064276 244.9819207531514Q717.7939481248386 246.5230166032965 717.7939481248386 250.6326055370168L717.7939481248386 250.6326055370168L717.7939481248386 294.8106865745099L770.3909787140503 238.10406705157786Q778.6101565814909 229.25703531926334 791.5667772475257 229.25703531926334L791.5667772475257 229.25703531926334L799.7859551149663 229.25703531926334L799.7859551149663 242.21365598529815Q792.7939461652338 242.21365598529815 788.6843572315136 243.64059658728436Q784.5747682977933 245.06753718927058 779.8373254991991 250.00475167214287L779.8373254991991 250.00475167214287L736.486870010858 296.43739886077424L775.3281931969226 347.40771716372166Q783.3475993800851 357.6816894980224 788.1706586147984 361.16342456686874Q792.993717849512 364.6736984477548 798.3304757009403 364.6736984477548L798.3304757009403 364.6736984477548Z " fill="#a04ef6" transform="matrix(1.0834879105304216,0,0,1.0834879105304216,0,-29.658820909039832)"/></g></svg>